REM DIRINDEX 1\2,1\3
REM DIRNAME cjc133,folder01,folder02
TITLE ""
FILE "DISC1Track29.mp3" MP3
  TRACK 01 AUDIO
    TITLE "0:"
    INDEX 01 00:00:00
  TRACK 02 AUDIO
    TITLE "3:cjc133_1290"
    INDEX 01 00:00:21
  TRACK 03 AUDIO
    TITLE "0:"
    INDEX 01 00:01:54
  TRACK 04 AUDIO
    TITLE "2:cjc133_1291"
    INDEX 01 00:02:28
  TRACK 05 AUDIO
    TITLE "2:cjc133_1292"
    INDEX 01 00:05:30
  TRACK 06 AUDIO
    TITLE "2:cjc133_1293"
    INDEX 01 00:08:26
  TRACK 07 AUDIO
    TITLE "0:"
    INDEX 01 00:10:35
  TRACK 08 AUDIO
    TITLE "2:cjc133_1294"
    INDEX 01 00:11:03
  TRACK 09 AUDIO
    TITLE "2:cjc133_1295"
    INDEX 01 00:12:18
  TRACK 10 AUDIO
    TITLE "2:cjc133_1296"
    INDEX 01 00:15:46
  TRACK 11 AUDIO
    TITLE "0:"
    INDEX 01 00:18:09
  TRACK 12 AUDIO
    TITLE "2:cjc133_1297"
    INDEX 01 00:18:54
  TRACK 13 AUDIO
    TITLE "2:cjc133_1298"
    INDEX 01 00:20:16
  TRACK 14 AUDIO
    TITLE "2:cjc133_1299"
    INDEX 01 00:23:36
  TRACK 15 AUDIO
    TITLE "0:"
    INDEX 01 00:25:66
  TRACK 16 AUDIO
    TITLE "2:cjc133_1300"
    INDEX 01 00:26:44
  TRACK 17 AUDIO
    TITLE "2:cjc133_1301"
    INDEX 01 00:27:71
  TRACK 18 AUDIO
    TITLE "2:cjc133_1302"
    INDEX 01 00:31:24
  TRACK 19 AUDIO
    TITLE "0:"
    INDEX 01 00:33:58
  TRACK 20 AUDIO
    TITLE "2:cjc133_1303"
    INDEX 01 00:34:32
  TRACK 21 AUDIO
    TITLE "2:cjc133_1304"
    INDEX 01 00:37:08
  TRACK 22 AUDIO
    TITLE "2:cjc133_1305"
    INDEX 01 00:40:09
  TRACK 23 AUDIO
    TITLE "0:"
    INDEX 01 00:42:14
  TRACK 24 AUDIO
    TITLE "2:cjc133_1306"
    INDEX 01 00:42:68
  TRACK 25 AUDIO
    TITLE "2:cjc133_1307"
    INDEX 01 00:46:56
  TRACK 26 AUDIO
    TITLE "2:cjc133_1308"
    INDEX 01 00:50:17
  TRACK 27 AUDIO
    TITLE "0:"
    INDEX 01 00:52:57
  TRACK 28 AUDIO
    TITLE "2:cjc133_1309"
    INDEX 01 00:53:37
  TRACK 29 AUDIO
    TITLE "2:cjc133_1310"
    INDEX 01 00:54:30
  TRACK 30 AUDIO
    TITLE "2:cjc133_1311"
    INDEX 01 00:58:11
  TRACK 31 AUDIO
    TITLE "0:"
    INDEX 01 01:00:68
  TRACK 32 AUDIO
    TITLE "2:cjc133_1312"
    INDEX 01 01:01:44
  TRACK 33 AUDIO
    TITLE "2:cjc133_1313"
    INDEX 01 01:04:41
  TRACK 34 AUDIO
    TITLE "2:cjc133_1314"
    INDEX 01 01:09:03
  TRACK 35 AUDIO
    TITLE "0:"
    INDEX 01 01:12:44
  TRACK 36 AUDIO
    TITLE "2:cjc133_1315"
    INDEX 01 01:13:20
  TRACK 37 AUDIO
    TITLE "2:cjc133_1316"
    INDEX 01 01:14:72
  TRACK 38 AUDIO
    TITLE "2:cjc133_1317"
    INDEX 01 01:19:30
  TRACK 39 AUDIO
    TITLE "0:"
    INDEX 01 01:22:68
  TRACK 40 AUDIO
    TITLE "2:cjc133_1318"
    INDEX 01 01:23:42
  TRACK 41 AUDIO
    TITLE "2:cjc133_1319"
    INDEX 01 01:26:34
  TRACK 42 AUDIO
    TITLE "2:cjc133_1320"
    INDEX 01 01:30:32
  TRACK 43 AUDIO
    TITLE "0:"
    INDEX 01 01:33:36
  TRACK 44 AUDIO
    TITLE "2:cjc133_1321"
    INDEX 01 01:34:12
  TRACK 45 AUDIO
    TITLE "2:cjc133_1322"
    INDEX 01 01:38:16
  TRACK 46 AUDIO
    TITLE "2:cjc133_1323"
    INDEX 01 01:41:69
  TRACK 47 AUDIO
    TITLE "0:"
    INDEX 01 01:44:58
  TRACK 48 AUDIO
    TITLE "2:cjc133_1324"
    INDEX 01 01:45:36
  TRACK 49 AUDIO
    TITLE "2:cjc133_1325"
    INDEX 01 01:47:03
  TRACK 50 AUDIO
    TITLE "2:cjc133_1326"
    INDEX 01 01:50:47
  TRACK 51 AUDIO
    TITLE "0:"
    INDEX 01 01:53:21
  TRACK 52 AUDIO
    TITLE "2:cjc133_1327"
    INDEX 01 01:53:69
  TRACK 53 AUDIO
    TITLE "2:cjc133_1328"
    INDEX 01 01:55:52
  TRACK 54 AUDIO
    TITLE "2:cjc133_1329"
    INDEX 01 01:59:20
  TRACK 55 AUDIO
    TITLE "0:"
    INDEX 01 02:01:72
  TRACK 56 AUDIO
    TITLE "2:cjc133_1330"
    INDEX 01 02:02:52
  TRACK 57 AUDIO
    TITLE "2:cjc133_1331"
    INDEX 01 02:04:25
  TRACK 58 AUDIO
    TITLE "2:cjc133_1332"
    INDEX 01 02:08:09
  TRACK 59 AUDIO
    TITLE "0:"
    INDEX 01 02:10:71
  TRACK 60 AUDIO
    TITLE "2:cjc133_1333"
    INDEX 01 02:11:49
  TRACK 61 AUDIO
    TITLE "2:cjc133_1334"
    INDEX 01 02:12:52
  TRACK 62 AUDIO
    TITLE "2:cjc133_1335"
    INDEX 01 02:16:07
  TRACK 63 AUDIO
    TITLE "0:"
    INDEX 01 02:18:47
